<svg xmlns="http://www.w3.org/2000/svg" width="32" height="32" viewBox="0 0 256 256"><path d="M223.37 85.333C218.049 37.408 177.334 0 128 0 78.667 0 37.952 37.408 32.63 85.333H-.225l20.459 143.2c2.24 15.66 15.85 27.467 31.68 27.467h152.17c15.82 0 29.44-11.808 31.68-27.467l20.46-143.2H223.38zm-95.37-64c37.536 0 68.608 27.883 73.813 64H54.187c5.205-36.117 36.277-64 73.813-64zm86.635 204.182c-.736 5.216-5.28 9.152-10.55 9.152H51.915c-5.27 0-9.814-3.936-10.55-9.152L24.384 106.667h207.232zm-75.968-12.182h-21.334V128h21.334zm53.333 0h-21.333V128H192zm-106.667 0H64V128h21.333z" fill="#3a7948" font-family="none" font-weight="none" font-size="none" text-anchor="none"/></svg>