<svg xmlns="http://www.w3.org/2000/svg" id="Filled" viewBox="0 0 24 24" width="64" height="64"><path d="M12 0a12 12 0 1012 12A12.013 12.013 0 0012 0zm3.222 7H8.778A19.614 19.614 0 0112 2.412 19.57 19.57 0 0115.222 7zm.8 2a10.211 10.211 0 01.476 3 10.211 10.211 0 01-.476 3H7.976a10.211 10.211 0 01-.476-3 10.211 10.211 0 01.476-3zM9.4 2.356A19.676 19.676 0 006.574 7H3.353A10.031 10.031 0 019.4 2.356zM2 12a9.986 9.986 0 01.461-3H5.9a12.016 12.016 0 00-.4 3 12.016 12.016 0 00.4 3H2.461A9.986 9.986 0 012 12zm1.353 5h3.221A19.676 19.676 0 009.4 21.644 10.031 10.031 0 013.353 17zm5.425 0h6.444A19.614 19.614 0 0112 21.588 19.57 19.57 0 018.778 17zm5.827 4.644A19.676 19.676 0 0017.426 17h3.221a10.031 10.031 0 01-6.042 4.644zM22 12a9.986 9.986 0 01-.461 3H18.1a12.016 12.016 0 00.4-3 12.016 12.016 0 00-.4-3h3.437A9.986 9.986 0 0122 12zm-4.574-5a19.676 19.676 0 00-2.821-4.644A10.031 10.031 0 0120.647 7z"/></svg>